<!-- Generated by IcoMoon.io -->
<svg version="1.1" xmlns="http://www.w3.org/2000/svg" width="1647" height="512" viewBox="0 0 1647 512">
<title></title>
<g id="icomoon-ignore">
</g>
<path fill="#fff" d="M50.4 466.7c8.6-1.8 14.9-9.3 14.9-18.2 0-0.2 0-0.5 0-0.7v0c0-13.2-10.9-21.2-28.5-21.2h-36.8v84.8h37.7c19.1 0 30.9-8.7 30.9-23.2 0-0.3 0-0.7 0-1 0-10.6-7.9-19.3-18.2-20.5v0 0 0zM14.3 439.3h21.8c9.1 0 14.5 3.9 14.5 11s-5.4 11.4-14.5 11.4h-21.8c0 0 0-22.4 0-22.4zM36.1 498.7h-21.8v-24.4h21.8c11.2 0 17.7 4.5 17.7 12 0.1 8-6.6 12.4-17.7 12.4v0zM148.3 426.6h-14.3v84.8h51v-13h-36.7v-71.8zM304.9 476.2c0 14.4-8.6 22.9-22.4 22.9s-22.8-8.6-22.8-22.9v-49.7h-14.2v49.7c0 22.2 14.1 35.7 36.9 35.7s36.8-13.6 36.8-35.7v-49.7h-14.2l-0.1 49.7zM402.4 475.2h41.4v-12.8h-41.4v-22.9h46.3v-12.8h-60.6v84.8h62v-12.8h-47.7v-23.5zM665.1 426.7h-6.3l-50.6 54.5v-54.5h-5.1v84.7h5.1v-22.8l18.7-20.4 34.5 43.1h6.4l-37.2-47.1 34.5-37.5zM758.8 426.7l-38.3 84.7h5.6l10.9-24.1h49.7l11 24.1h5.6l-38.8-84.7h-5.7zM739.1 482.2l22.4-49.7 22.8 49.7h-45.2zM929.6 503.6l-56.6-76.9h-5.9v84.7h5.1v-76.9l56.4 76.9h5.9v-84.7h-5l0.1 76.9zM1047.1 431.4v0c10.4 0 19.7 3.8 26.8 10.2v0l3-3.7c-7.9-7-18.4-11.2-29.8-11.2v0c-24.2 0-44 18.9-44 42.4 0.4 23.6 19.5 42.5 43.1 42.5 0.2 0 0.4 0 0.6 0v0c11.5 0 22-4.2 30.1-11.1l-0.1 0.1v-30.6h-4.5v28.1c-6.9 5.4-15.7 8.7-25.3 8.7v0 0c-0.3 0-0.6 0-1 0-20.8 0-37.6-16.8-37.6-37.6s16.8-37.6 37.6-37.6c0.5-0.2 0.8-0.2 1.1-0.2v0 0 0zM1177.2 426.7l-38.4 84.7h5.6l10.9-24.1h49.6l11 24.1h5.6l-38.8-84.7h-5.5zM1157.4 482.2l22.4-49.7 22.8 49.7h-45.2zM1348 454.6c0-17.7-11.9-27.8-32.9-27.8h-29.8v84.6h5.1v-28.2h24.8c0.1 0 0.3 0 0.5 0 2.4 0 4.7-0.2 6.9-0.5h-0.3l20.1 28.7h6l-21.2-29.5c13.5-3.4 20.8-12.9 20.8-27.3v0 0zM1315.3 478.2h-25v-46.5h25c17.7 0 27.8 8.1 27.8 23s-10 23.5-27.8 23.5v0zM1456.2 426.6c-22.9 0.8-41.1 19.5-41.1 42.5 0 23.5 19 42.5 42.5 42.5s42.5-19 42.5-42.5c0 0 0 0 0-0.1v0c-0.1-23.5-19.7-42.4-43.9-42.4v0zM1456.2 506.5c-20.3-0.6-36.5-17.1-36.5-37.5 0-20.7 16.8-37.5 37.5-37.5s37.5 16.8 37.5 37.5v0c-0.4 20.8-17.4 37.6-38.2 37.6-0.1-0.1-0.2-0.1-0.3-0.1v0 0zM1602.7 426.6c-24.2 0-43.8 18.9-43.8 42.4 0.8 23.6 20.1 42.4 43.8 42.4s43-18.8 43.8-42.3v-0.1c0.1-23.5-19.5-42.4-43.8-42.4zM1602.7 506.5c-20.2-0.6-36.4-17.2-36.4-37.5 0-20.7 16.8-37.5 37.5-37.5s37.5 16.8 37.5 37.5v0c-0.4 20.8-17.3 37.6-38.2 37.6-0.1-0.1-0.2-0.1-0.4-0.1v0 0z"></path>
<path fill="#36a8df" d="M971.3 117.1c-6.3-1.9-13.6-3-21.1-3-2.9 0-5.9 0.2-8.7 0.5h0.3c-10.4 1.1-20 3.8-28.8 7.9l0.5-0.2c-18.7 8.5-33.2 23.5-41 41.9l-0.2 0.5c-3.6 8.7-5.8 18.8-6 29.4v0.1c0 0.5 0 1.2 0 1.8 0 9.1 0.8 18.1 2.2 26.8l-0.1-0.9c3.2 19.3 9.5 36.7 18.5 52.3l-0.4-0.7c9.3 16 20.7 29.6 33.9 41.2l0.2 0.2c12.6 11.3 27.2 20.5 43.3 27l1 0.4c-25.8-22.5-46.3-49.2-58.8-78.4-5.7-13.2-9.9-28.6-11.8-44.6l-0.1-0.8c-0.7-5.8-1.1-12.4-1.1-19.2 0-1.4 0-2.8 0-4.2v0.2c0.3-7.3 1.8-14.3 4.3-20.6l-0.1 0.4c5.5-13 15-23.3 27-29.7l0.3-0.2c9.2-5.2 20.3-8.3 32-8.3 3.3 0 6.5 0.2 9.7 0.7h-0.4c6.8 1 12.8 3.9 17.5 8.2v0c4.6 4.7 7.5 11 7.9 18v0.1c0.1 1.2 0.1 2.6 0.1 4.1 0 6.9-1.1 13.5-3 19.7l0.1-0.5c-2.8 9.4-5.9 17.2-9.4 24.8l0.5-1.1c5.8-6.1 11-13 15.3-20.3l0.3-0.5c4.5-7.4 7.6-16.2 8.9-25.5v-0.4c0.2-1.6 0.3-3.4 0.3-5.3 0-9.1-2.9-17.4-7.9-24.2l0.1 0.1c-6.4-8.3-15.2-14.4-25.4-17.4l0.1-0.3zM1133.2 90.2c-1.4-12.1-5.4-23-11.4-32.5l0.2 0.3c-6.1-9.8-13.4-18.2-21.7-25.4l-0.1-0.1c-3.9-3.5-8.2-6.8-12.7-9.8l-0.4-0.3c-4.2-2.9-9-5.8-14-8.3l-0.7-0.3-27.5-13.8 15.2 27.8c1 1.9 2 4.1 2.7 6.4l0.1 0.3c0.7 2 1.2 4.4 1.4 6.8v0.1c0.1 0.5 0.1 1.2 0.1 1.8 0 3.1-1.1 6-2.9 8.3v0c-2.8 2.9-6.4 5.1-10.5 6.2h-0.2c-2.1 0.7-4.4 1.1-6.9 1.1-1.9 0-3.8-0.3-5.6-0.7h0.2c-8.5-2.2-19.1-9.6-30.1-16.2-10.2-6.4-21.9-12.4-34.2-17.4l-1.5-0.5c-25.3-9.9-52-13.8-78.2-14.7s-54.4 2.1-79.7 13.2-46.5 29.4-64.8 46.6-36 33.5-56.6 39.9c-4.6 1.6-10 2.7-15.6 3.3h-0.3c-4 0.4-8.7 0.6-13.4 0.6-1.5 0-3 0-4.5-0.1h0.2c-12.3 0-24.6-0.5-36.9-1.4-12.2-0.9-24.4-2.4-36.4-4.5-6-1-11.9-2.2-17.7-3.6-2.9-0.7-5.8-1.5-8.6-2.4s-5.8-1.9-7.6-2.5l-39.7-16.1 26.9 32.1c4.9 5.8 9.9 11 15.3 15.8l0.1 0.1c5.1 4.6 10.6 9.1 16.4 13.3l0.6 0.4c11.1 8.2 24 15 37.7 19.9l1 0.3c11.4 4 24.5 6.3 38.1 6.3 1.9 0 3.7 0 5.6-0.1h-0.3c15.6-0.8 29.9-2.4 44-4.6l-2.4 0.3c27.1-3.9 54.1-7.6 80.8-3.9 14.3 2 27.2 6.2 39 12.2l-0.7-0.3c12.6 6.6 23.5 14.6 32.9 24.1v0c-8.8-10.7-19-19.8-30.5-27.2l-0.5-0.3c-11.2-7-24.2-12.3-38.2-15.4l-0.8-0.1c-27.7-6.2-56.1-3.7-83.4-1.7-13.7 1-27.2 2.1-40.5 2-13.5-0.1-26.3-2.9-37.9-7.8l0.7 0.2c-11.8-5-22-11-31.3-18.1l0.3 0.2c11.6 2.3 23.3 3.9 34.9 5.1 12.9 1.3 25.8 2.1 38.6 2.5 2.7 0.1 5.8 0.2 9 0.2 4 0 7.9-0.1 11.8-0.4h-0.5c7.8-0.6 15-2 21.9-4.1l-0.7 0.2c14.3-4.5 26.7-11.2 37.6-19.7l-0.3 0.2c10.9-8.1 20.4-17 29.7-25.5 8.5-8 17.5-15.7 27-22.9l0.8-0.6c8.7-6.5 18.5-12.4 28.9-17.2l1-0.4c21-9.3 44-12.5 68.3-11.6 25.2 0.3 49.3 4.6 71.7 12.4l-1.6-0.5c12.5 4.6 23.1 9.7 33.2 15.7l-0.9-0.5c5.3 3 10.7 6.3 16.6 9.5 5.9 3.5 12.7 6.4 20 8.3l0.5 0.1c2.9 0.7 6.3 1.1 9.7 1.1 1 0 2 0 3-0.1h-0.1c4.5-0.4 8.6-1.3 12.5-2.8l-0.3 0.1c8.3-2.8 15.2-7.8 20.4-14.3l0.1-0.1c2.7-3.6 4.6-7.8 5.6-12.4v-0.2c0.5-2.2 0.7-4.7 0.7-7.3 0-0.4 0-0.7 0-1v0.1c1.2 0.8 2.4 1.7 3.5 2.5 7.6 5.8 14.2 12.4 19.7 20l0.2 0.3c5.2 7.2 9 15.8 10.7 25l0.1 0.4c0.6 2.9 0.9 6.3 0.9 9.8 0 1.3 0 2.5-0.1 3.8v-0.2c-0.1 0.8-0.3 1.5-0.5 2.2v-0.1c0 0 0 0 0 0.2-0.9 0-1.7-0.2-2.5-0.5h0.1c-5.2-2-9.6-4-13.8-6.4l0.5 0.3c-4.7-2.4-9.5-4.7-14.5-6.7-10-4-21.9-6.4-32.9-2.8s-19 12-24.5 20.9c-5.1 8.3-9.4 17.8-12.4 27.9l-0.2 0.9c4.4-10.2 9.6-19 15.6-27l-0.2 0.3c6.2-7.9 14.1-14.7 23.4-16.7s18.7 0.8 27.5 5.1c4.4 2.2 8.8 4.7 13.1 7.4 4.1 2.7 8.8 5.4 13.8 7.6l0.7 0.3c1.5 0.6 3.2 1.1 4.9 1.4h0.1c0.6 0.1 1.3 0.2 1.9 0.2 4.7 0 8.8-2.8 10.7-6.7v-0.1c0.8-1.5 1.4-3.3 1.7-5.2v-0.1c0.6-3.2 1-7 1-10.8 0-2.4-0.1-4.8-0.4-7.1l0.2 0.2zM1119.9 107.8v0z"></path>
</svg>
